HIERARCHY
ROOT Spine
{
    OFFSET 0.0 0.0 -0.0
    CHANNELS 6 Xposition Yposition Zposition Zrotation Xrotation Yrotation
    JOINT ShoulderCenter
    {
        OFFSET 0.0 0.2362511157989502 0.0
        CHANNELS 3 Zrotation Xrotation Yrotation
        JOINT LeftShoulder
        {
            OFFSET 0.1681962013244629 0.0 0.0
            CHANNELS 3 Zrotation Xrotation Yrotation
            JOINT LeftElbow
            {
                OFFSET 0.22011320292949677 0.0 0.0
                CHANNELS 3 Zrotation Xrotation Yrotation
                JOINT LeftHand
                {
                    OFFSET 0.2664255201816559 0.0 0.0
                    CHANNELS 3 Zrotation Xrotation Yrotation
                    End Site
                    {
                        OFFSET 0.10657022893428802 0.0 0.0
                    }
                }
            }
        }
        JOINT RightShoulder
        {
            OFFSET -0.1681962013244629 0.0 0.0
            CHANNELS 3 Zrotation Xrotation Yrotation
            JOINT RightElbow
            {
                OFFSET -0.22011320292949677 0.0 0.0
                CHANNELS 3 Zrotation Xrotation Yrotation
                JOINT RightHand
                {
                    OFFSET -0.2664255201816559 0.0 0.0
                    CHANNELS 3 Zrotation Xrotation Yrotation
                    End Site
                    {
                        OFFSET -0.10657022893428802 0.0 0.0
                    }
                }
            }
        }
        End Site
        {
            OFFSET 0.0 0.09450045973062515 0.0
        }
    }
    JOINT LeftHip
    {
        OFFSET 0.22492007097311537 -0.22492007097311537 0.0
        CHANNELS 3 Zrotation Xrotation Yrotation
        JOINT LeftKnee
        {
            OFFSET 0.0 -0.3235723078250885 0.0
            CHANNELS 3 Zrotation Xrotation Yrotation
            JOINT LeftFoot
            {
                OFFSET 0.0 -0.3921419382095337 0.0
                CHANNELS 3 Zrotation Xrotation Yrotation
                End Site
                {
                    OFFSET 0.0 0.0 0.15685676038265228
                }
            }
        }
    }
    JOINT RightHip
    {
        OFFSET -0.22492007097311537 -0.22492007097311537 0.0
        CHANNELS 3 Zrotation Xrotation Yrotation
        JOINT RightKnee
        {
            OFFSET 0.0 -0.3235723078250885 0.0
            CHANNELS 3 Zrotation Xrotation Yrotation
            JOINT RightFoot
            {
                OFFSET 0.0 -0.3921419382095337 0.0
                CHANNELS 3 Zrotation Xrotation Yrotation
                End Site
                {
                    OFFSET 0.0 0.0 0.15685676038265228
                }
            }
        }
    }
}
MOTION
Frames: 7
Frame Time: 0.03333333333333333
-0.5075262784957886 0.19654080271720886 3.2126009464263916 5.461942929379358 -17.067492077259047 142.27547940998244 -3.423119695413056e-07 4.9357363641908953e-08 -10.463894231704836 130.1095704816119 -33.03096004634382 -131.45425525446896 3.96356903373109e-07 4.363949988345301e-06 140.0881251835196 0.0 3.1805546814635164e-15 0.0 -101.34164415281359 -12.962537227635606 171.7869350237135 3.915906015499259e-07 1.025152143617706e-06 -117.27662086872662 -7.951386703658792e-15 0.0 0.0 15.454138024284104 0.8284690574953729 -83.68335804425827 7.573921866739922 -14.29255768670897 88.24973673289252 -3.9756933518293955e-16 5.862219302097867e-33 -1.689669674527493e-15 -2.5890230839391224 7.447310573796897 73.14452582105754 -9.322815622052248 -10.019660273865664 -61.28061584837157 -1.1927080055488188e-15 3.206978794677068e-32 -3.0811623476677818e-15
-0.5078489780426025 0.19605790078639984 3.214962959289551 5.474006286437462 -17.355811748194487 144.25716127184316 -7.869621608733562e-08 -5.675754631218055e-07 -13.050946748015777 127.3968465492401 -29.61862839731519 -134.2007211732502 -3.054043769246698e-06 -1.2567714864833849e-06 140.88408787322982 3.1805546814635164e-15 6.3611093629270335e-15 6.3611093629270335e-15 -99.84503041615848 -13.043292672962117 169.3262660713043 -2.695018469418137e-06 5.192073205895907e-06 -117.6015315977072 -1.5902773407317588e-15 6.3611093629270335e-15 6.3611093629270335e-15 16.702660170777893 -0.7886202608415637 -100.88280639347414 10.610234591837024 -13.100899476761459 107.12491663312098 -6.896728590703373e-34 7.951386703658791e-16 9.939233379573489e-17 -2.2181300053757784 7.143896065311155 71.32025830703274 -9.183952201472133 -10.044703367536316 -60.93514020530051 -3.975693351829396e-16 4.482873583957193e-33 -1.2921003393445538e-15
-0.5080655813217163 0.19575269520282745 3.215890884399414 5.491854697846385 -17.347984903577558 144.41354578184774 -2.8220167547975667e-07 -6.285439940319773e-08 -12.100560179645738 126.94509011759311 -30.28344326584677 -132.8003682617305 -4.8663006272742245e-06 -1.4580818419561197e-06 139.79289715760893 0.0 0.0 6.3611093629270335e-15 -99.67183937674534 -14.136619562893145 159.21480761912915 8.341726767098532e-06 3.136126873986002e-06 -112.75259170427809 -1.5902773407317584e-15 0.0 0.0 16.721874564547676 -0.8106262910172004 -100.57871482316413 10.595133167982011 -13.084771897305293 106.75967978970964 -6.896728590703373e-33 -7.951386703658791e-16 -9.939233379573488e-16 -2.2912913640230688 7.166040871655843 71.71399207773472 -9.21601860217771 -10.406711759215808 -61.478888590297814 3.9756933518293955e-16 -5.172546443027529e-33 -1.4908850069360234e-15
-0.5079405903816223 0.19651289284229279 3.2158210277557373 5.442310221895181 -17.324831681980562 144.4970993261433 -8.064241313880919e-07 -5.319264833476894e-07 -13.55763806363121 127.80943615523893 -29.23379050203863 -135.87324959732825 1.6350108905312484e-06 -3.1993482505406246e-06 139.86400764437903 6.3611093629270335e-15 -7.062250076880254e-31 -1.2722218725854067e-14 -95.68936552014311 -15.1778922612802 152.71735848477493 4.820292062845601e-06 8.418809098655711e-08 -117.39185847860149 -7.951386703658796e-16 6.3611093629270335e-15 6.3611093629270335e-15 16.542978733480496 -0.6743457103970512 -98.24979641326154 10.192137050070983 -13.72533641054696 103.5523030663097 -7.951386703658792e-16 8.276074308844047e-33 -1.1927080055488188e-15 -2.4697943517567134 7.205715581110633 72.67275648795157 -9.42876130793222 -10.03085738967538 -61.028331903617335 -3.9756933518293955e-16 1.5902773407317582e-15 -5.963540027744093e-16
-0.5075857043266296 0.196902796626091 3.2161500453948975 5.2275004460797385 -17.130841341054026 145.97355720325186 -5.44638209661452e-07 2.927498753552089e-08 -13.883882272246458 124.88282851672854 -28.421489171632942 -135.6796579672699 1.8698914497005501e-06 3.0339885079276815e-06 136.56458408577885 0.0 0.0 6.3611093629270335e-15 -103.80369440316228 -11.578167775565902 162.35517766296994 7.11173177839885e-06 8.199015283348138e-06 -139.73960837663054 5.963540027744093e-15 0.0 0.0 16.227081328018443 -1.16214975689905 -98.92347558813562 9.994573268012283 -13.580715848007173 103.95504311166523 -1.9878466759146977e-16 8.793328953146801e-33 -5.069009023582479e-15 -2.6529086664887616 7.694653451618585 72.84530215433122 -10.06085767265062 -10.335362478548578 -61.350932833593 -7.951386703658792e-16 2.6897241503743153e-32 -3.876301018033661e-15
-0.5076138973236084 0.19738399982452393 3.2163400650024414 5.142235391664533 -17.081662191220243 147.50644588756296 -1.3801491936820605e-06 1.1480041733495125e-06 -12.656096227778256 126.37859461691005 -31.174266361945435 -132.4236988919578 2.0449379594392436e-07 -1.3730476788421394e-06 134.5614215594511 -3.1805546814635164e-15 0.0 0.0 -103.77246948284265 -7.643361256665888 168.60874989816415 4.8308460935809644e-06 3.11348920234566e-06 -149.1534508855809 1.242404172446686e-15 -3.1805546814635168e-15 -6.3611093629270335e-15 15.622217634571738 -2.0094210695170305 -92.53115106166098 7.521162331418643 -13.5001179409728 97.46172688606539 -5.963540027744094e-16 7.951386703658792e-16 -4.273870353216601e-15 -2.580818293396599 7.899342986050492 71.6640862082461 -9.94667137204269 -11.2809227736238 -61.50264485162263 0.0 0.0 4.025389518727263e-15
-0.5074043273925781 0.19853420555591583 3.2162160873413086 5.191058100753133 -17.153393072963393 147.01888203696006 -6.730719779475267e-07 1.1331915453339804e-06 -11.236838432264665 126.13301573387572 -31.053705718038383 -131.8495671277144 -1.577930988998248e-06 4.67052988112368e-07 134.123748654365 0.0 3.1805546814635164e-15 0.0 -105.57480602032415 -7.877167206214253 176.8088699237261 -5.738574570523674e-07 3.9943201608978535e-06 -158.54735303271002 -1.2424041724466863e-15 3.1805546814635168e-15 3.4483642953516866e-32 15.48772461863951 -2.1413185724381756 -86.65359652403274 5.79411760905957 -13.560922135012628 90.65882450582079 -3.975693351829396e-16 7.951386703658792e-16 1.5902773407317584e-15 -1.9374948247380581 7.573293024369144 67.31056543632035 4.398697124200429 -9.108250746463101 -22.921588436526037 0.0 0.0 -1.9878466759146975e-16
